<?xml version="1.0" encoding="utf-8"?>
<!-- Generator: Adobe Illustrator 24.0.1, SVG Export Plug-In . SVG Version: 6.00 Build 0)  -->
<svg version="1.1" id="Camada_1" xmlns="http://www.w3.org/2000/svg" xmlns:xlink="http://www.w3.org/1999/xlink" x="0px" y="0px"
	 viewBox="0 0 205 59" style="enable-background:new 0 0 205 59;" xml:space="preserve">
<style type="text/css">
	.st0{fill:#32B62E;}
	.st1{fill:#FFFFFF;stroke:#FFFFFF;stroke-miterlimit:10;}
</style>
<title>Logo do Apeperia</title>
<desc>Created using Figma</desc>
<g>
	<g>
		<g>
			<g>
				<path class="st0" d="M49.7,22.1c0,0,0-0.1,0-0.1c0,0,0,0,0-0.1c0,0,0,0,0,0c0-0.1,0,0.2,0-0.2c0-0.1,0-0.1,0-0.2
					c0-0.2-0.1-0.3-0.2-0.4c-0.2-0.2-0.1-0.1-0.4-0.3c0,0,0,0,0,0c0,0,0,0-0.1,0c-0.2-0.1-0.4-0.2-0.6-0.2c-0.2,0-0.4,0.1-0.6,0.2
					c-0.2,0.1-0.3,0.3-0.4,0.4c-0.1,0.2-0.2,0.4-0.2,0.6c0,0,0,0.1,0,0.1c0,0,0,0,0,0.1c0,0,0,0,0,0c0,0,0,0,0,0c0,0.1,0,0.2,0,0.3
					c0,0.1,0.1,0.2,0.1,0.3c0.1,0.2,0.3,0.3,0.4,0.4c0,0,0,0,0,0c0,0,0,0,0.1,0c0.1,0.1,0.3,0.1,0.5,0.1c0.2,0,0.3,0,0.5,0
					c0.2,0,0.3-0.1,0.4-0.2c0.1-0.1,0.2-0.2,0.3-0.4c0-0.1,0.1-0.2,0.1-0.3c0.1-0.2,0.1-0.4,0-0.7c0-0.1-0.1-0.2-0.1-0.3
					c-0.1-0.2-0.3-0.3-0.4-0.4c0,0-0.1,0-0.1-0.1C49.2,21.3,49.4,21.7,49.7,22.1c-0.1-0.1-0.1-0.2-0.1-0.2c-0.6,0.4-1.3,0.7-1.9,1.1
					c0,0,0.1,0,0.1,0.1c-0.2-0.4-0.4-0.7-0.6-1.1c0,0.1,0,0.1,0,0.2c0,0.2,0,0.3,0.1,0.5c0.1,0.2,0.1,0.3,0.3,0.4
					c0.1,0.1,0.2,0.2,0.4,0.3c0.1,0.1,0.3,0.1,0.5,0.1c0.1,0,0.2,0,0.3,0c0.2-0.1,0.4-0.2,0.6-0.3c0.1-0.1,0.1-0.2,0.2-0.3
					C49.6,22.5,49.7,22.3,49.7,22.1z"/>
			</g>
		</g>
		<g>
			<g>
				<path class="st0" d="M15.7,21.9c0,5.1,0,10.1,0,15.2c0,0.2,0,0.5,0,0.7c0,0.6,0.4,0.9,0.8,1.2c0.7,0.5,1.4,1,2.1,1.5
					c2.6,1.9,5.2,3.8,7.8,5.7c1.9,1.4,3.7,2.7,5.6,4.1c0.8,0.6,1.9-0.2,1.9-1.1c0-5.1,0-10.1-0.1-15.2c0-0.2,0-0.5,0-0.7
					c0-0.6-0.3-0.9-0.8-1.2c-0.7-0.5-1.4-1-2.1-1.5c-2.6-1.9-5.2-3.8-7.8-5.7c-1.9-1.4-3.7-2.7-5.6-4.1c-0.5-0.4-1.4-0.1-1.7,0.4
					c-0.4,0.6-0.1,1.3,0.4,1.7c4.6,3.3,9.1,6.7,13.7,10c0.6,0.5,1.3,0.9,1.9,1.4c-0.2-0.4-0.4-0.7-0.6-1.1c0,4.6,0,9.3,0.1,13.9
					c0,0.7,0,1.3,0,2c0.6-0.4,1.3-0.7,1.9-1.1c-4.6-3.3-9.2-6.7-13.8-10c-0.6-0.5-1.3-0.9-1.9-1.4c0.2,0.4,0.4,0.7,0.6,1.1
					c0-4.6,0-9.3,0-13.9c0-0.7,0-1.3,0-2C18.2,20.2,15.7,20.2,15.7,21.9z"/>
			</g>
		</g>
		<g>
			<g>
				<path class="st0" d="M49.6,22c0-0.7-0.4-1.1-0.9-1.5c-0.3-0.3-0.7-0.5-1-0.8c-1.3-0.9-2.5-1.9-3.8-2.8c-3-2.2-5.9-4.4-8.9-6.6
					c-0.7-0.5-1.4-1.1-2.1-1.6c-0.3-0.2-0.9-0.2-1.3,0c-4.6,3.5-9.3,6.9-13.9,10.4c-0.6,0.4-1.8,1.1-2,1.8c-0.1,0.5-0.1,1.4,0.3,1.8
					c0.1,0.1,0.2,0.2,0.4,0.3c0.3,0.2,0.5,0.4,0.8,0.6c2.7,1.9,5.3,3.9,8,5.8c2.2,1.6,4.5,3.3,6.7,4.9c0.3,0.2,0.9,0.2,1.3,0
					c4.6-3.3,9.3-6.6,13.9-9.8c0.6-0.5,1.3-0.9,1.9-1.4c0.5-0.4,0.8-1.1,0.4-1.7c-0.3-0.5-1.2-0.8-1.7-0.4
					c-4.6,3.3-9.3,6.6-13.9,9.8c-0.6,0.5-1.3,0.9-1.9,1.4c0.4,0,0.8,0,1.3,0c-4.6-3.3-9.1-6.7-13.7-10c-0.6-0.5-1.3-0.9-1.9-1.4
					c0.2,0.4,0.4,0.7,0.6,1.1c0-0.2,0-0.4,0-0.5c-0.2,0.4-0.4,0.7-0.6,1.1c4.5-3.3,9-6.7,13.4-10c0.6-0.5,1.3-1,1.9-1.4
					c-0.4,0-0.8,0-1.3,0c4.7,3.5,9.4,7,14.1,10.5c0.7,0.5,1.3,1,2,1.5c-0.2-0.4-0.4-0.7-0.6-1.1c0,0.1,0,0.1,0,0.2
					C47.1,23.6,49.6,23.6,49.6,22z"/>
			</g>
		</g>
		<g>
			<g>
				<path class="st0" d="M49.7,37.9c0-4.7,0-9.5,0-14.2c0-0.4,0-0.9,0-1.3c0-0.6-0.2-1.1-0.7-1.4c-0.3-0.2-0.9-0.2-1.3,0
					c-4.3,3-8.6,6.1-12.9,9.1c-0.8,0.6-1.7,1.2-2.5,1.8c-0.1,0.1-0.3,0.2-0.4,0.3c-0.5,0.4-0.6,0.8-0.6,1.4c0,2.8,0,5.5,0,8.3
					c0,1.7,0,3.5,0,5.2c0,1-0.3,2.5,0.6,3.1c0.3,0.2,0.9,0.2,1.3,0c4.6-3.3,9.3-6.6,13.9-9.8c0.6-0.5,1.3-0.9,1.9-1.4
					c0.5-0.4,0.8-1.1,0.4-1.7c-0.3-0.5-1.2-0.8-1.7-0.4c-4.6,3.3-9.3,6.6-13.9,9.8c-0.6,0.5-1.3,0.9-1.9,1.4c0.4,0,0.8,0,1.3,0
					c0,0,0,0,0,0c0.2,0.4,0.4,0.7,0.6,1.1c0-4.6,0-9.3-0.1-13.9c0-0.7,0-1.3,0-2c-0.2,0.4-0.4,0.7-0.6,1.1c4.6-3.3,9.3-6.6,13.9-9.8
					c0.6-0.5,1.3-0.9,1.9-1.4c-0.4,0-0.8,0-1.3,0c0,0,0.1,0,0.1,0.1c-0.2-0.4-0.4-0.7-0.6-1.1c0,4.6,0,9.3,0,13.9c0,0.7,0,1.3,0,2
					C47.2,39.5,49.7,39.5,49.7,37.9z"/>
			</g>
		</g>
	</g>
	<g>
		<path class="st1" d="M70.3,36.3l-0.1-1.7c-0.7,0.7-1.4,1.2-2.2,1.5c-0.7,0.3-1.5,0.5-2.3,0.5c-0.7,0-1.4-0.1-1.9-0.3
			c-0.5-0.2-1-0.5-1.3-0.8c-0.3-0.3-0.6-0.7-0.8-1.2c-0.2-0.4-0.2-0.9-0.2-1.5c0-1.3,0.5-2.3,1.5-3.1s2.4-1.1,4.3-1.1H70v-1.1
			c0-0.8-0.2-1.4-0.7-1.8S68,25,67,25c-0.7,0-1.5,0.1-2.2,0.2c-0.7,0.2-1.4,0.4-2.2,0.7v-2c0.3-0.1,0.6-0.2,1-0.3
			c0.3-0.1,0.7-0.2,1.1-0.3c0.4-0.1,0.8-0.1,1.2-0.2s0.8-0.1,1.3-0.1c0.8,0,1.5,0.1,2.1,0.3c0.6,0.2,1.2,0.4,1.6,0.8
			c0.4,0.4,0.8,0.8,1,1.3c0.2,0.5,0.3,1.2,0.3,1.9v8.9H70.3z M70,30.4h-2.9c-0.6,0-1,0.1-1.4,0.2s-0.7,0.3-1,0.5s-0.5,0.5-0.6,0.7
			c-0.1,0.3-0.2,0.6-0.2,1c0,0.3,0,0.5,0.1,0.7c0.1,0.2,0.2,0.4,0.4,0.6s0.4,0.3,0.7,0.4c0.3,0.1,0.6,0.2,1,0.2
			c0.5,0,1.1-0.2,1.8-0.5c0.7-0.3,1.4-0.8,2.1-1.5V30.4z"/>
		<path class="st1" d="M87.6,29.6c0,1.2-0.2,2.2-0.5,3c-0.3,0.9-0.8,1.6-1.3,2.1c-0.6,0.6-1.2,1-2,1.3s-1.6,0.4-2.5,0.4
			c-0.4,0-0.8,0-1.2-0.1c-0.4,0-0.8-0.1-1.2-0.2v5.4h-2.3V23.4h2l0.1,2.2c0.6-0.9,1.3-1.5,2.1-1.9c0.7-0.4,1.5-0.5,2.4-0.5
			c0.7,0,1.4,0.2,2,0.5c0.6,0.3,1,0.7,1.4,1.3c0.4,0.6,0.7,1.2,0.9,2C87.5,27.7,87.6,28.6,87.6,29.6z M85.3,29.7
			c0-0.7,0-1.3-0.1-1.9c-0.1-0.6-0.3-1.1-0.5-1.5s-0.5-0.7-0.8-1c-0.3-0.2-0.7-0.3-1.2-0.3c-0.3,0-0.6,0-0.9,0.1
			c-0.3,0.1-0.6,0.2-0.9,0.5c-0.3,0.2-0.6,0.5-1,0.8c-0.3,0.3-0.7,0.8-1.1,1.3v6.3c0.4,0.2,0.8,0.3,1.3,0.4c0.5,0.1,0.9,0.1,1.3,0.1
			c1.2,0,2.2-0.4,2.9-1.2C84.9,32.6,85.3,31.4,85.3,29.7z"/>
		<path class="st1" d="M102.1,29.6c0,1.2-0.2,2.2-0.5,3c-0.3,0.9-0.8,1.6-1.3,2.1c-0.6,0.6-1.2,1-2,1.3c-0.8,0.3-1.6,0.4-2.5,0.4
			c-0.4,0-0.8,0-1.2-0.1c-0.4,0-0.8-0.1-1.2-0.2v5.4H91V23.4h2l0.1,2.2c0.6-0.9,1.3-1.5,2.1-1.9c0.7-0.4,1.5-0.5,2.4-0.5
			c0.7,0,1.4,0.2,2,0.5c0.6,0.3,1,0.7,1.4,1.3c0.4,0.6,0.7,1.2,0.9,2C102,27.7,102.1,28.6,102.1,29.6z M99.8,29.7
			c0-0.7,0-1.3-0.1-1.9c-0.1-0.6-0.3-1.1-0.5-1.5c-0.2-0.4-0.5-0.7-0.8-1c-0.3-0.2-0.7-0.3-1.2-0.3c-0.3,0-0.6,0-0.9,0.1
			c-0.3,0.1-0.6,0.2-0.9,0.5c-0.3,0.2-0.6,0.5-1,0.8c-0.3,0.3-0.7,0.8-1.1,1.3v6.3c0.4,0.2,0.8,0.3,1.3,0.4c0.5,0.1,0.9,0.1,1.3,0.1
			c1.2,0,2.2-0.4,2.9-1.2C99.5,32.6,99.8,31.4,99.8,29.7z"/>
		<path class="st1" d="M110.7,32.3c0.3,0,0.6,0.1,0.8,0.2c0.3,0.1,0.5,0.3,0.7,0.5c0.2,0.2,0.3,0.4,0.5,0.7c0.1,0.3,0.2,0.5,0.2,0.8
			c0,0.3-0.1,0.6-0.2,0.8c-0.1,0.3-0.3,0.5-0.5,0.7c-0.2,0.2-0.4,0.3-0.7,0.5c-0.3,0.1-0.5,0.2-0.8,0.2c-0.3,0-0.6-0.1-0.8-0.2
			c-0.3-0.1-0.5-0.3-0.7-0.5c-0.2-0.2-0.3-0.4-0.5-0.7c-0.1-0.3-0.2-0.5-0.2-0.8c0-0.3,0.1-0.6,0.2-0.8c0.1-0.3,0.3-0.5,0.5-0.7
			c0.2-0.2,0.4-0.4,0.7-0.5C110.1,32.3,110.4,32.3,110.7,32.3z"/>
		<path class="st1" d="M131.2,29.6c0,1.1-0.1,2-0.4,2.9c-0.3,0.8-0.7,1.6-1.3,2.2c-0.5,0.6-1.2,1-2,1.4c-0.8,0.3-1.7,0.5-2.7,0.5
			c-0.8,0-1.6-0.1-2.4-0.2s-1.6-0.4-2.4-0.7V18.1h2.2v5l-0.1,2.4c0.6-0.9,1.3-1.5,2.1-1.8c0.7-0.4,1.5-0.5,2.4-0.5
			c0.7,0,1.4,0.2,2,0.5c0.6,0.3,1,0.7,1.4,1.3c0.4,0.6,0.7,1.2,0.9,2C131.2,27.7,131.2,28.6,131.2,29.6z M128.9,29.7
			c0-0.7,0-1.3-0.1-1.9c-0.1-0.6-0.3-1.1-0.5-1.5c-0.2-0.4-0.5-0.7-0.8-1c-0.3-0.2-0.7-0.3-1.2-0.3c-0.3,0-0.6,0-0.9,0.1
			c-0.3,0.1-0.6,0.2-0.9,0.5s-0.6,0.5-1,0.8c-0.3,0.3-0.7,0.8-1.1,1.3v6.3c0.4,0.2,0.9,0.3,1.3,0.4c0.5,0.1,0.9,0.1,1.3,0.1
			c0.5,0,1-0.1,1.5-0.2c0.5-0.2,0.9-0.4,1.2-0.8c0.4-0.4,0.6-0.9,0.9-1.5C128.8,31.4,128.9,30.7,128.9,29.7z"/>
		<path class="st1" d="M145.1,36.3h-2l-0.1-2.1c-0.4,0.4-0.8,0.8-1.1,1.1c-0.3,0.3-0.7,0.5-1,0.7c-0.3,0.2-0.7,0.3-1,0.4
			c-0.3,0.1-0.7,0.1-1.1,0.1c-1.3,0-2.3-0.4-3-1.2c-0.7-0.8-1-2-1-3.6v-8.5h2.2v8.3c0,2,0.8,3,2.3,3c0.3,0,0.5,0,0.8-0.1
			c0.3-0.1,0.5-0.2,0.8-0.4c0.3-0.2,0.6-0.5,0.9-0.8c0.3-0.3,0.7-0.8,1.1-1.3v-8.6h2.3V36.3z"/>
		<path class="st1" d="M153.7,25.2h-3.8v-1.9h6.1v11.1h3.9v1.9h-10.4v-1.9h4.3V25.2z M154.5,17.9c0.2,0,0.5,0,0.7,0.1
			c0.2,0.1,0.4,0.2,0.6,0.4c0.2,0.2,0.3,0.4,0.4,0.6c0.1,0.2,0.1,0.4,0.1,0.7c0,0.2,0,0.5-0.1,0.7c-0.1,0.2-0.2,0.4-0.4,0.6
			c-0.2,0.2-0.3,0.3-0.6,0.4c-0.2,0.1-0.4,0.1-0.7,0.1c-0.3,0-0.5,0-0.7-0.1c-0.2-0.1-0.4-0.2-0.6-0.4c-0.2-0.2-0.3-0.4-0.4-0.6
			c-0.1-0.2-0.1-0.4-0.1-0.7c0-0.3,0-0.5,0.1-0.7c0.1-0.2,0.2-0.4,0.4-0.6c0.2-0.2,0.3-0.3,0.6-0.4C154,18,154.2,17.9,154.5,17.9z"
			/>
		<path class="st1" d="M168.3,19.9h-3.8v-1.8h6.1v16.4h3.9v1.9H164v-1.9h4.3V19.9z"/>
		<path class="st1" d="M177.7,30.1c0-1.1,0.2-2.1,0.5-2.9s0.7-1.6,1.3-2.2c0.6-0.6,1.2-1,2-1.3s1.6-0.5,2.6-0.5c0.4,0,0.8,0,1.2,0.1
			c0.4,0.1,0.8,0.1,1.2,0.2v-5.5h2.3v18.3h-2l-0.1-2.5c-0.6,0.9-1.3,1.6-2,2s-1.5,0.7-2.4,0.7c-0.7,0-1.4-0.2-2-0.5
			c-0.6-0.3-1-0.7-1.4-1.3s-0.7-1.2-0.8-2C177.8,32,177.7,31.1,177.7,30.1z M180,30c0,1.6,0.2,2.7,0.7,3.5c0.5,0.8,1.1,1.2,2,1.2
			c0.6,0,1.2-0.3,1.8-0.8c0.6-0.5,1.3-1.3,2-2.3v-6c-0.4-0.2-0.8-0.3-1.2-0.4s-0.9-0.1-1.3-0.1c-1.2,0-2.2,0.4-2.9,1.2
			C180.4,27.1,180,28.3,180,30z"/>
	</g>
</g>
</svg>
